<svg width="20" height="20" viewBox="0 0 20 20" xmlns="http://www.w3.org/2000/svg">
<path d="M6.98547 2.05234C6.97571 2.08326 6.96269 2.14987 6.95293 2.20221C6.91713 2.40441 6.89435 2.49005 6.86832 2.53525C6.85205 2.56142 6.83252 2.68512 6.82276 2.80883C6.813 2.93253 6.79347 3.10381 6.77395 3.18945C6.75768 3.27509 6.7349 3.39166 6.72188 3.45113C6.71212 3.5106 6.68934 3.59624 6.67307 3.64144C6.6568 3.68664 6.62751 3.77704 6.60473 3.84365C6.52663 4.0863 6.44853 4.24806 6.05803 4.98552C5.97993 5.13302 5.69356 5.53267 5.55363 5.6873C5.10456 6.18925 4.73358 6.81252 4.5188 7.42866C4.41792 7.71413 4.41467 7.73316 4.41467 8.24462C4.41792 8.79653 4.46023 9.07962 4.62294 9.56491C4.63921 9.61011 4.675 9.72192 4.70429 9.8147C4.73683 9.9051 4.76937 10.0026 4.78565 10.0288C4.79866 10.055 4.84097 10.1454 4.88327 10.231C4.92232 10.3166 5.00042 10.4879 5.059 10.6116C5.30957 11.1445 5.57967 11.9414 5.63173 12.2888C5.78468 13.3474 5.71959 13.8184 5.39743 13.9992C5.09805 14.1657 4.5904 13.9683 4.33982 13.5853C4.23569 13.4235 4.13481 13.1285 4.13481 12.9763C4.13481 12.8906 4.10878 12.7479 4.03393 12.4196C3.99813 12.2697 3.86471 11.851 3.80939 11.7297C3.79638 11.6964 3.76709 11.6227 3.74431 11.5632C3.66295 11.3491 3.60112 11.223 3.48723 11.0351C3.44818 10.9732 3.41889 10.9161 3.41889 10.909C3.41889 10.8757 3.16506 10.5141 3.06419 10.3999C2.9991 10.3309 2.93076 10.25 2.90798 10.2215C2.88521 10.1953 2.78433 10.1025 2.68019 10.0193C2.49796 9.87417 2.48494 9.86703 2.39382 9.89082C2.30271 9.91223 2.2962 9.92413 2.27667 10.0669C2.2604 10.2025 2.17905 10.526 2.07817 10.8614C2.05864 10.9256 1.97729 11.1183 1.89919 11.2896C1.81784 11.4585 1.68767 11.7369 1.60957 11.9081C1.37852 12.3958 1.17351 12.9834 1.10842 13.3355C1.01731 13.8303 0.994528 14.0706 1.00104 14.5202C1.00429 15.1078 1.0531 15.3647 1.2451 15.8333C1.49567 16.4447 1.95126 17.0941 2.51748 17.6532C2.86893 17.9981 3.6597 18.5619 4.05346 18.7522C4.7108 19.0686 5.25099 19.2923 5.52109 19.3636C5.67404 19.4041 5.84325 19.454 5.89857 19.4754C6.17193 19.5777 7.49963 19.8323 8.25785 19.9274C8.71669 19.9845 8.87289 19.9916 9.68318 19.9988C10.6236 20.0059 10.9849 19.9845 12.0913 19.8561C13.0382 19.7466 13.8973 19.5539 14.9061 19.2233C15.5244 19.0211 15.9833 18.776 16.6471 18.286C17.3956 17.7364 18.0269 17.0537 18.3914 16.3971C18.4076 16.3686 18.4369 16.3186 18.4532 16.2853C18.4727 16.252 18.4988 16.2021 18.515 16.1711C18.6419 15.9499 18.8079 15.4908 18.8762 15.1791C18.899 15.0816 18.9283 14.9412 18.9446 14.8699C18.9999 14.6344 19.0194 13.9207 18.9771 13.6661C18.9153 13.3022 18.847 12.9977 18.7721 12.7764C18.7005 12.5576 18.5053 12.0961 18.4369 11.9795C18.4141 11.9391 18.3458 11.8225 18.2872 11.7178C17.9911 11.1945 17.5095 10.6069 17.1092 10.2833C16.7773 10.0145 16.4974 9.83135 15.9735 9.53399C15.8987 9.49117 15.7392 9.49355 15.6774 9.53874C15.6448 9.56253 15.7164 9.96933 15.7555 10.005C15.7718 10.0169 15.7848 10.055 15.7848 10.0907C15.7848 10.1263 15.7978 10.162 15.8141 10.1692C15.8303 10.1763 15.8499 10.2239 15.8596 10.2714C15.8694 10.3214 15.9052 10.4475 15.9345 10.5522C16.0484 10.9399 16.0256 12.0342 15.8954 12.4791C15.8043 12.7978 15.57 13.3521 15.4691 13.4996C15.3617 13.6542 15.0558 13.8898 14.8899 13.9445C14.7207 14.0016 14.6068 14.0016 14.3562 13.9397C14.1479 13.8874 13.9429 13.7637 13.8485 13.6305C13.7542 13.502 13.6923 13.2284 13.7151 13.0524C13.7834 12.5266 13.8225 12.3221 13.8941 12.1222C13.9104 12.0699 13.9396 11.9843 13.9559 11.9319C13.9754 11.8796 14.0405 11.7202 14.1056 11.5798C14.1674 11.4371 14.3041 11.0256 14.405 10.664C14.5872 10.0121 14.5905 10.0003 14.5905 9.6006C14.5872 9.21759 14.5417 8.89644 14.418 8.46348C14.379 8.32313 14.2097 7.94488 14.1251 7.81166C14.0893 7.75457 14.0601 7.70461 14.0601 7.69985C14.0601 7.6832 13.8355 7.32636 13.7281 7.17411C13.5426 6.91006 13.266 6.62935 13.0024 6.43665C12.7063 6.2178 12.3256 5.97277 12.2865 5.97277C12.2703 5.97277 12.228 5.95374 12.1922 5.92995C12.1531 5.90378 12.0002 5.8229 11.8505 5.74915C11.5934 5.61831 11.5771 5.61593 11.5185 5.654C11.4372 5.70871 11.4404 5.78008 11.5348 5.92995C11.5771 5.99894 11.6422 6.10837 11.6812 6.1726C11.7203 6.23445 11.7626 6.3415 11.7691 6.41049C11.7789 6.4771 11.7984 6.55322 11.8147 6.57939C11.8309 6.60556 11.8505 6.66979 11.8602 6.72212C11.8667 6.77446 11.8895 6.8601 11.9058 6.91244C12.0099 7.21931 12.0229 7.31685 12.0229 7.74505C12.0197 8.12568 12.0067 8.23273 11.9481 8.42304C11.909 8.54674 11.8407 8.77036 11.7984 8.91785C11.7008 9.25328 11.4632 9.58632 11.2354 9.70527C10.9751 9.83849 10.5846 9.81232 10.3828 9.6458C10.2559 9.53874 10.2299 9.48641 10.1648 9.23662C10.1225 9.06534 10.1192 8.98208 10.1518 8.6419C10.1746 8.42304 10.2039 8.16374 10.2234 8.0662C10.3796 7.21218 10.3828 6.52705 10.2331 6.04414C10.1583 5.80387 9.97281 5.41611 9.83613 5.2139C9.76779 5.11398 9.64088 4.92605 9.55302 4.79521C9.37404 4.52402 8.6874 3.6914 8.23182 3.18945C8.13094 3.07764 7.9845 2.91112 7.90315 2.82072C7.81854 2.72794 7.72742 2.63755 7.69813 2.61851C7.66885 2.59948 7.6298 2.5638 7.61353 2.53525C7.57122 2.46626 7.5159 2.40203 7.41502 2.31401C7.36295 2.27119 7.3239 2.22837 7.3239 2.21886C7.3239 2.19031 7.07333 2 7.03428 2C7.01476 2 6.99198 2.02379 6.98547 2.05234ZM9.12021 12.4267C9.63112 12.6813 9.80033 12.7836 10.2364 13.1142C10.8384 13.5686 11.3428 14.0634 11.6259 14.4774C12.0132 15.0412 12.4655 16.0974 12.4655 16.4328C12.4655 16.5327 12.5404 16.6065 12.6412 16.6065C12.7486 16.6065 12.7812 16.5803 12.882 16.4162C13.0252 16.1854 13.0936 15.9546 13.0708 15.7905C13.061 15.7168 13.061 15.6549 13.0708 15.6549C13.0805 15.6549 13.1456 15.6977 13.214 15.7501C13.4873 15.9594 13.637 16.34 13.637 16.8325C13.637 17.5414 13.3767 18.1623 12.8755 18.6523C12.5631 18.9568 12.3516 19.1019 11.9253 19.2994C11.2777 19.5991 10.8417 19.6824 9.91098 19.6824C9.24062 19.6848 9.04862 19.661 8.63534 19.5301C7.82505 19.2732 7.18072 18.8498 6.73815 18.2836C6.56568 18.0647 6.35416 17.608 6.30209 17.3368C6.19145 16.7944 6.2663 16.0641 6.48433 15.5621C6.56568 15.3813 6.58195 15.3885 6.72514 15.6739C6.82602 15.8785 6.98872 16.095 7.09286 16.164C7.13191 16.1902 7.22628 16.2139 7.31414 16.2187C7.68186 16.2449 7.95196 16.1093 8.14396 15.8048C8.567 15.1315 8.67113 14.9293 8.80781 14.513C8.88916 14.2775 8.91845 13.6305 8.86964 13.276C8.84686 13.1119 8.81757 12.8716 8.80456 12.7408C8.79479 12.6099 8.76876 12.4624 8.75249 12.4125C8.71995 12.3244 8.73296 12.2769 8.78828 12.2769C8.80456 12.2769 8.95425 12.3435 9.12021 12.4267Z" />
</svg>
